<svg width="122" height="47" viewBox="0 0 122 47" fill="none" xmlns="http://www.w3.org/2000/svg">
<path fill-rule="evenodd" clip-rule="evenodd" d="M59.2911 38.7115C58.2995 37.2529 57.8037 35.1528 57.8037 32.4111V22.0147C57.8037 19.2511 58.294 17.162 59.2747 15.7473C60.2554 14.3326 61.9988 13.6252 64.505 13.6252C66.7932 13.6252 68.4331 14.2668 69.4247 15.5499C70.4162 16.833 70.912 18.7467 70.912 21.2909V22.2121H68.5584V21.2909C68.5584 19.295 68.2751 17.8529 67.7085 16.9646C67.1419 16.0763 66.0849 15.6321 64.5376 15.6321C63.3826 15.6321 62.4946 15.8844 61.8735 16.3888C61.2524 16.8933 60.8383 17.5787 60.6313 18.4451C60.4243 19.3115 60.3208 20.4136 60.3208 21.7515V32.7072C60.3208 34.7909 60.6204 36.3372 61.2197 37.3461C61.819 38.3551 62.9359 38.8595 64.5703 38.8595C66.1176 38.8595 67.1963 38.3496 67.8065 37.3297C68.4167 36.3098 68.7218 34.7471 68.7218 32.6414V29.5159H64.7992V27.6406H71.0101V40.5374H69.4083L69.1141 37.5106C68.7436 38.5854 68.177 39.4188 67.4143 40.011C66.6515 40.6033 65.6273 40.8993 64.3415 40.8993C61.9661 40.8993 60.2826 40.1701 59.2911 38.7115ZM76.3221 38.7279C75.2869 37.3023 74.7693 35.2844 74.7693 32.6743V21.6199C74.7693 19.0318 75.2924 17.0523 76.3384 15.6815C77.3845 14.3107 79.1388 13.6252 81.6013 13.6252C84.0203 13.6252 85.7528 14.3161 86.7989 15.6979C87.8449 17.0798 88.368 19.0537 88.368 21.6199V32.7072C88.368 35.3173 87.8558 37.3297 86.8316 38.7444C85.8073 40.1591 84.0639 40.8664 81.6013 40.8664C79.117 40.8664 77.3572 40.1536 76.3221 38.7279ZM84.9356 37.4284C85.5458 36.4743 85.8509 35.0761 85.8509 33.2337V21.1594C85.8509 19.317 85.5512 17.9352 84.9519 17.014C84.3526 16.0928 83.2358 15.6322 81.6013 15.6322C79.9451 15.6322 78.8118 16.0873 78.2016 16.9975C77.5915 17.9078 77.2864 19.295 77.2864 21.1594V33.2337C77.2864 35.098 77.5915 36.5017 78.2016 37.4449C78.8118 38.388 79.9451 38.8596 81.6013 38.8596C83.214 38.8596 84.3254 38.3825 84.9356 37.4284ZM92.4868 13.8885H98.4689C100.844 13.8885 102.533 14.4642 103.536 15.6157C104.538 16.7672 105.039 18.4506 105.039 20.6659C105.039 22.3548 104.767 23.7475 104.222 24.8442C103.677 25.9409 102.729 26.6318 101.378 26.9169L105.432 40.5375H103.013L99.1226 27.4433H94.9711V40.5375H92.4868V13.8885ZM98.338 25.6008C99.9289 25.6008 101.04 25.206 101.672 24.4164C102.304 23.6268 102.62 22.3766 102.62 20.6658C102.62 18.9331 102.321 17.6829 101.721 16.9152C101.122 16.1475 100.016 15.7637 98.4034 15.7637H94.9711V25.6008H98.338ZM113.375 13.8885H115.99L121.613 40.5375H119.161L117.853 33.3982H111.544L110.204 40.5375H107.785L113.375 13.8885ZM117.527 31.5886L114.715 17.2113L111.904 31.5886H117.527Z" fill="black"/>
<path fill-rule="evenodd" clip-rule="evenodd" d="M19.9412 30.2981C21.2238 30.2981 22.2625 31.3362 22.2625 32.618C22.2625 33.902 21.2238 34.9412 19.9412 34.9412C18.6596 34.9412 17.6176 33.902 17.6176 32.618C17.6176 31.3362 18.6596 30.2981 19.9412 30.2981ZM37.3888 41.9761C38.2457 41.9761 38.9422 42.6732 38.9422 43.5296C38.9422 44.3854 38.2457 45.0788 37.3888 45.0788C36.5319 45.0788 35.8381 44.3854 35.8381 43.5296C35.8381 42.6732 36.5319 41.9761 37.3888 41.9761ZM19.9412 28.7391C22.084 28.7391 23.8231 30.4771 23.8231 32.618C23.8231 34.928 21.8215 36.7143 19.5319 36.4771L14.1828 45.8835C14.1037 46.0279 13.9532 46.2551 13.6747 46.3726C13.3775 46.5038 12.9502 46.5038 12.7793 46.5038H2.13654C0.505102 46.5038 -0.517705 44.5545 0.272196 43.1843L17.6616 13.0823C18.7805 11.1494 20.6256 11.532 21.3996 12.8808L37.2613 40.5449C38.9587 40.4746 40.3748 41.8267 40.3748 43.5263C40.3748 45.1748 39.0383 46.5104 37.3888 46.5104C35.7387 46.5104 34.4022 45.1748 34.4022 43.5263C34.4022 42.5612 34.8598 41.7048 35.5695 41.1581C35.5695 41.1581 21.5611 16.7065 20.3746 14.6616C19.9615 13.9496 19.248 13.9864 18.8069 14.6896C17.8824 16.2893 7.61312 34.0557 2.22223 43.389C1.90913 43.932 2.11621 44.74 2.90007 44.74H11.9015C12.87 44.74 12.9386 44.42 13.2622 43.9155C13.5725 43.389 16.207 38.7108 17.822 35.87C16.7607 35.1772 16.0598 33.9788 16.0598 32.618C16.0598 30.4771 17.7961 28.7391 19.9412 28.7391Z" fill="black"/>
<path fill-rule="evenodd" clip-rule="evenodd" d="M23.8996 6.82403C24.7548 6.82403 25.4477 7.52158 25.4477 8.38249C25.4477 9.2467 24.7548 9.94315 23.8996 9.94315C23.0438 9.94315 22.3471 9.2467 22.3471 8.38249C22.3471 7.52158 23.0438 6.82403 23.8996 6.82403ZM42.7281 39.9092L26.1279 10.3769C26.5936 9.84657 26.8816 9.14957 26.8816 8.38248C26.8816 6.728 25.5431 5.38477 23.8996 5.38477C22.2517 5.38477 20.917 6.728 20.917 8.38248C20.917 10.0403 22.2517 11.3818 23.8996 11.3818C24.136 11.3818 24.3686 11.3531 24.5919 11.3024L41.0901 40.6476C41.3583 41.1228 41.9612 41.2387 42.3578 41.0135C42.7407 40.7988 42.9229 40.253 42.7281 39.9092Z" fill="#49A5B8"/>
<path fill-rule="evenodd" clip-rule="evenodd" d="M43.704 31.2101C44.5633 31.2101 45.2619 31.9055 45.2619 32.7611C45.2619 33.6166 44.5633 34.3098 43.704 34.3098C42.8446 34.3098 42.1483 33.6166 42.1483 32.7611C42.1483 32.0223 42.7317 31.2101 43.704 31.2101ZM43.704 29.7799C45.3577 29.7799 46.6985 31.1147 46.6985 32.7611C46.6985 34.4053 45.3577 35.7396 43.704 35.7396C42.0524 35.7396 40.7089 34.4053 40.7089 32.7611C40.7089 31.9571 41.0295 31.2288 41.5495 30.693L24.8987 1.29967C24.8469 1.20753 24.7764 0.981031 24.8248 0.738628C24.8755 0.489095 25.0457 0.224206 25.2859 0.105747C25.4308 0.038839 25.6104 -0.0149065 25.7702 0.00373987C26.0814 0.0421295 26.364 0.249982 26.4598 0.418897L43.1267 29.8342C43.3123 29.7991 43.5079 29.7799 43.704 29.7799Z" fill="#FF6925"/>
<path fill-rule="evenodd" clip-rule="evenodd" d="M5.11098 10.3012C4.52865 10.3989 4.06214 10.84 3.92915 11.4188C3.79563 11.9975 4.02246 12.6 4.50237 12.945C4.98283 13.2905 5.62254 13.3105 6.1239 12.9963C6.80651 12.5671 7.0151 11.6612 6.58881 10.9723C6.31909 10.5377 5.84829 10.2812 5.35067 10.2812C5.27078 10.2812 5.19142 10.2877 5.11098 10.3012ZM2.43201 16.6025L2.73556 17.244L5.35067 18.1145L4.41055 15.9722C4.36661 15.8719 4.33943 15.7693 4.31052 15.6666L2.43201 16.6025ZM3.9629 19.5353C4.22104 20.0089 4.86244 20.2069 5.3957 19.9772L6.32355 19.5775C6.07729 19.3996 5.86897 19.1754 5.7297 18.9014L5.45175 18.3544L2.91844 17.625L3.9629 19.5353ZM5.52117 14.0205C5.24915 14.3733 5.3089 14.8854 5.6549 15.1627L7.89361 16.9617C8.09677 17.125 8.36537 17.1768 8.61348 17.1018L11.1049 16.3444C11.1749 16.3223 11.2403 16.2927 11.3001 16.2537C11.5971 16.0654 11.7456 15.6899 11.6409 15.3313C11.5157 14.9005 11.0713 14.6547 10.6496 14.7837L8.5543 15.4208L6.64052 13.8839C6.49484 13.7659 6.32071 13.7084 6.14714 13.7084C5.91155 13.7084 5.67766 13.8153 5.52117 14.0205ZM6.32352 18.2323C6.32352 18.2323 6.51159 18.6573 6.57392 18.7987C6.62711 18.9186 6.84635 19.2829 6.98982 19.41C7.21711 19.6094 7.90007 20.2081 7.90007 20.2081L9.12145 21.279L9.90274 23.8487C10.0462 24.3214 10.5379 24.5854 11.0016 24.4386C11.0752 24.4156 11.144 24.3828 11.2069 24.3428C11.5368 24.133 11.7001 23.7161 11.5803 23.319L10.7238 20.5045C10.6754 20.3434 10.583 20.1999 10.4578 20.0909L9.65557 19.3864L10.9312 19.4275L12.0715 20.8025C12.3568 21.1459 12.8415 21.2155 13.2063 20.9838C13.2418 20.9619 13.2756 20.9361 13.3089 20.9076C13.6797 20.5883 13.7254 20.0246 13.4127 19.6466L12.0204 17.9666C11.8592 17.7732 11.6255 17.6582 11.3767 17.65L9.86889 17.6034C9.86889 17.6034 8.31114 17.5103 7.83291 17.1783L7.16929 16.6459L6.32352 18.2323ZM3.41661 13.3209L1.54838 14.2228C1.3042 14.3415 1.1177 14.5512 1.02822 14.8065C0.940363 15.0607 0.957073 15.3413 1.07566 15.5853C1.32199 16.0916 1.93269 16.3023 2.44045 16.0566L4.09847 15.2558L4.30815 15.1542C4.4111 15.1048 4.50111 15.0354 4.58089 14.9559C4.57442 15.1752 4.61215 15.3988 4.70918 15.6127L5.61742 17.625L6.32353 16.3291L5.27137 15.5036C4.98893 15.2816 4.83045 14.9645 4.79865 14.6339C4.80728 14.613 4.81967 14.5931 4.82776 14.5716C4.88166 14.4168 4.89244 14.2545 4.8698 14.0954C4.85471 13.9911 4.8283 13.889 4.7814 13.7922C4.74529 13.7186 4.70001 13.653 4.65042 13.5923C4.45368 13.3537 4.16153 13.2188 3.85968 13.2188C3.71091 13.2188 3.55945 13.2515 3.41661 13.3209Z" fill="black"/>
</svg>
