<svg width="50" height="50" viewBox="0 0 50 50" fill="none" xmlns="http://www.w3.org/2000/svg">
    <path d="M35.0865 16.0714H14.9135L25 24.717L35.0865 16.0714Z"
          fill="#306BAC"/>
    <path d="M25 26.7857C24.7868 26.7857 24.5806 26.7094 24.4189 26.5704L13.3929 17.1195V33.9286H36.6071V17.1195L25.5811 26.5704C25.4194 26.7094 25.2132 26.7857 25 26.7857Z"
          fill="#306BAC"/>
    <path d="M25 0C11.193 0 0 11.193 0 25C0 38.807 11.193 50 25 50C38.807 50 50 38.807 50 25C49.9843 11.1995 38.8005 0.0156948 25 0ZM38.3929 34.8214C38.3929 35.3145 37.9931 35.7143 37.5 35.7143H12.5C12.0069 35.7143 11.6071 35.3145 11.6071 34.8214V15.1786C11.6071 14.6855 12.0069 14.2857 12.5 14.2857H37.5C37.9931 14.2857 38.3929 14.6855 38.3929 15.1786V34.8214Z"
          fill="#306BAC"/>
</svg>
