<svg width="30" height="30" viewBox="0 0 30 30" fill="none" xmlns="http://www.w3.org/2000/svg">
<g clip-path="url(#clip0)">
<path d="M21.7937 12.9868V7.30934C21.7937 7.14684 21.7186 6.99669 21.6124 6.8779L15.2472 0.193863C15.1284 0.0688934 14.9595 0 14.7908 0H4.69897C2.83588 0 1.34769 1.51932 1.34769 3.38264V22.4657C1.34769 24.329 2.83588 25.8234 4.69897 25.8234H12.665C14.1717 28.3244 16.9105 30 20.0304 30C24.7699 30 28.6402 26.1484 28.6402 21.4027C28.6467 17.2572 25.6703 13.7933 21.7937 12.9868ZM15.4161 2.19475L19.6866 6.69022H16.9167C16.0913 6.69022 15.4161 6.00883 15.4161 5.18349V2.19475ZM4.69897 24.5728C3.52985 24.5728 2.5983 23.6348 2.5983 22.4657V3.38264C2.5983 2.20711 3.52985 1.25061 4.69897 1.25061H14.1655V5.18349C14.1655 6.7028 15.3974 7.94083 16.9167 7.94083H20.5431V12.824C20.3556 12.8178 20.2055 12.7991 20.043 12.7991C17.8608 12.7991 15.8538 13.637 14.3406 14.9501H6.3998C6.05579 14.9501 5.77449 15.2314 5.77449 15.5752C5.77449 15.9192 6.05579 16.2005 6.3998 16.2005H13.1777C12.7336 16.8258 12.3647 17.4511 12.0772 18.1389H6.3998C6.05579 18.1389 5.77449 18.4202 5.77449 18.7642C5.77449 19.108 6.05579 19.3895 6.3998 19.3895H11.6707C11.5144 20.0148 11.4331 20.7088 11.4331 21.4027C11.4331 22.5282 11.6519 23.6412 12.0459 24.5792H4.69897V24.5728ZM20.0368 28.7558C15.9851 28.7558 12.6899 25.4606 12.6899 21.4089C12.6899 17.3573 15.9787 14.062 20.0368 14.062C24.0947 14.062 27.3835 17.3573 27.3835 21.4089C27.3835 25.4606 24.0885 28.7558 20.0368 28.7558Z" fill="#F5F6FA"/>
<path d="M6.39978 13.068H12.7336C13.0776 13.068 13.3589 12.7865 13.3589 12.4427C13.3589 12.0987 13.0776 11.8174 12.7336 11.8174H6.39978C6.05577 11.8174 5.77448 12.0987 5.77448 12.4427C5.77448 12.7865 6.05577 13.068 6.39978 13.068Z" fill="#F5F6FA"/>
<path d="M23.238 21.2775L20.6683 24.0475V17.2197C20.6683 16.8757 20.3868 16.5944 20.043 16.5944C19.699 16.5944 19.4177 16.8757 19.4177 17.2197V24.0475L16.829 21.2775C16.5914 21.0276 16.1914 21.0088 15.9412 21.2464C15.691 21.484 15.6723 21.8779 15.9101 22.1281L19.5678 26.0609C19.6866 26.1859 19.8491 26.261 20.0242 26.261C20.1993 26.261 20.3618 26.1859 20.4806 26.0609L24.1448 22.1281C24.3824 21.8779 24.3698 21.4778 24.1196 21.2464C23.8633 21.0088 23.4758 21.0276 23.238 21.2775Z" fill="#F5F6FA"/>
</g>
<defs>
<clipPath id="clip0">
<rect width="30" height="30" fill="white"/>
</clipPath>
</defs>
</svg>
