<?xml version="1.0" encoding="UTF-8"?>
<svg id="_Слой_1" xmlns="http://www.w3.org/2000/svg" version="1.1" viewBox="0 0 1000 345">
  <!-- Generator: Adobe Illustrator 29.4.0, SVG Export Plug-In . SVG Version: 2.1.0 Build 152)  -->
  <defs>
    <style>
      .st0 {
        fill: #3aaa35;
      }
    </style>
  </defs>
  <g>
    <path d="M280.9,220.1v-94.2l82.2-.2v94.2h-19v-76.6l-44.3.2v76.6h-19Z"/>
    <path d="M462.5,147.8c-3.7-7.2-9-12.8-15.9-16.8-6.9-4-15.1-6-24.7-6.1-9.6,0-18,2-25,6-7,4-12.4,9.6-16.1,16.9-3.8,7.3-5.7,15.7-5.7,25.3,0,9.4,1.8,17.7,5.4,24.9,3.6,7.2,9,12.9,15.9,17,6.9,4.1,15.2,6.2,24.9,6.2,9.7,0,18.1-2,25-6.1,6.9-4.1,12.3-9.8,16.1-17.1,3.8-7.3,5.7-15.7,5.7-25.1,0-9.6-1.9-18-5.6-25.2h0ZM441.7,194.9c-4.8,5-11.4,8.2-18.6,8.6-.5,0-1,0-1.5,0s-1.1,0-1.7,0c-6.3-.4-12.1-2.9-16.7-6.9-6.4-5.6-10.3-14.1-10.3-23.5,0-8.9,3.5-16.8,9.3-22.4,0-.1.2-.2.3-.3,4.7-4.4,10.8-7.1,17.5-7.5.5,0,1.1,0,1.6,0s1,0,1.5,0c7,.4,13.3,3.4,18.1,8.1.2.2.5.5.7.8,5.3,5.5,8.5,13,8.5,21.4,0,8.5-3.3,16.3-8.6,21.8h0Z"/>
    <path d="M470.4,220.5v-17.8c3,0,5.8-.6,7.6-1.8,1.8-1.1,3.4-2.7,4.4-4.8s1.5-5.1,2-8c.4-2.5.5-4.9.7-7.8.2-2.8,0-5.7,0-8.3s0-4.9,0-7l.4-39.1,67.9-.2v94.2h-19.1v-76.5l-30.9.2-.3,22.5c0,6.8-.2,13.2-.5,19.2-.2,6-.9,11.4-2.1,16.1-1.2,4.7-5.1,14.1-16.1,16.9-3.7,1-8.2,2.2-14.1,2.2h0Z"/>
    <path d="M568.5,220.2v-94.2h19v58.5l44.7-58.3,18.4-.2v94.2h-19v-61.4l-46.9,61.4h-16.2Z"/>
    <path d="M690.1,220.1v-76.5h-31.5v-17.7h82.2v17.7h-31.6v76.5h-19.1,0Z"/>
    <path d="M749.2,220.1v-94.2h67.6v17.7h-48.7v21.3h45.4v17h-45.4v20.6h48.7v17.6h-67.6Z"/>
    <path d="M822.7,219.9l30.4-46.9-30.2-47.3h22.9l19.4,31.4,19.1-31.2h22.5l-30.4,46.9,30.4,47h-22.9l-19.5-33-20.2,33h-21.6,0Z"/>
  </g>
  <path class="st0" d="M93.4,94.5l-.4,155.6,155.1.4.4-155.6-155.1-.4ZM211.4,144c-1,.3-4,.9-4,.9v59.7c-.1,0,17.1,0,17.1,0v18.2s-37.4,0-37.4,0l.2-77.2h-31.6c0,0-.2,44.1-.2,44.1,0,3.4-.5,6.8-1.4,10-2.8,9.4-9.4,17.4-18.2,21.7-2.8,1.4-5.8,2.4-8.9,3-3.3.6-6.8.8-10.4.5v-18.5c7.3.8,14.6-3.2,17.6-9.9.8-1.6,1.7-3.8,1.7-7,0-2.5,0-44.6,0-44.6-7.6,1.7-13.1,7.9-16.6,14.1l-16.5-9.4c1.8-3.4,5.1-8.8,7.3-11.4,5.2-6,11.8-10.1,17.2-11.5,1.9-.5,6-1.3,9.4-1.3,14.6,0,64.2-.1,64.2-.1,8.1,0,15.4-4.3,19.4-11.3l16.1,9.4c-5.1,10.1-14.2,17.5-25.1,20.5h0Z"/>
</svg>