<?xml version="1.0" encoding="UTF-8"?>
<svg id="_Слой_1" data-name="Слой_1" xmlns="http://www.w3.org/2000/svg" version="1.1" viewBox="0 0 1000 885">
  <!-- Generator: Adobe Illustrator 29.3.1, SVG Export Plug-In . SVG Version: 2.1.0 Build 151)  -->
  <defs>
    <style>
      .st0 {
        fill: #3aaa35;
      }
    </style>
  </defs>
  <g>
    <path d="M115.5,769.57v-115.32l100.93-.24v115.32h-23.29v-93.82l-54.35.24v93.82h-23.29Z"/>
    <path d="M338.65,681.04c-4.58-8.8-11.11-15.65-19.56-20.56-8.49-4.91-18.55-7.38-30.28-7.41-11.85-.03-22.06,2.44-30.65,7.35-8.59,4.91-15.2,11.82-19.82,20.72-4.66,8.9-6.97,19.22-6.99,30.95-.03,11.48,2.19,21.69,6.69,30.53,4.46,8.88,10.99,15.82,19.47,20.81,8.53,5.04,18.68,7.55,30.53,7.57,11.94.03,22.18-2.48,30.73-7.51,8.51-5,15.12-11.99,19.74-20.93,4.62-8.98,6.97-19.18,6.99-30.7.03-11.73-2.27-22.02-6.85-30.82ZM313.03,738.68c-5.94,6.08-13.99,10-22.86,10.48-.62.04-1.28.04-1.91.04-.7,0-1.41-.04-2.07-.09-7.75-.47-14.83-3.56-20.46-8.42-7.9-6.86-12.67-17.21-12.64-28.74.03-10.86,4.3-20.61,11.45-27.39.08-.12.21-.25.37-.37,5.77-5.38,13.28-8.76,21.49-9.24.66-.04,1.37-.04,2.03-.04.62,0,1.2,0,1.82.05,8.58.48,16.36,4.14,22.19,9.88.29.29.62.62.83.91,6.53,6.77,10.4,15.89,10.37,26.22s-4.02,19.98-10.62,26.72Z"/>
    <path d="M348.32,770.06v-21.83c3.69,0,7.06-.77,9.29-2.18,2.22-1.41,4.22-3.28,5.36-5.89,1.14-2.61,1.9-6.31,2.45-9.79.54-3.04.64-6.05.86-9.53.22-3.47-.02-6.95.04-10.16.05-3.2.08-6.05.08-8.55l.49-47.89,83.39-.24v115.32h-23.45v-93.66l-37.95.24-.33,27.53c-.11,8.36-.3,16.21-.57,23.54-.27,7.33-1.14,13.9-2.61,19.71-1.47,5.81-6.26,17.24-19.76,20.73-4.54,1.17-10.02,2.65-17.3,2.65Z"/>
    <path d="M468.82,769.63v-115.32h23.29v71.71l54.85-71.46,22.64-.26v115.32h-23.29v-75.19l-57.62,75.19h-19.87Z"/>
    <path d="M618.07,769.51v-93.66h-38.66v-21.66h100.89v21.66h-38.78v93.66h-23.45Z"/>
    <path d="M690.76,769.51v-115.32h83.06v21.66h-59.77v26.06h55.72v20.85h-55.72v25.25h59.77v21.5h-83.06Z"/>
    <path d="M780.96,769.27l37.36-57.42-37.05-57.91h28.18l23.86,38.44,23.51-38.2h27.69l-37.35,57.5,37.35,57.58h-28.18l-24-40.39-24.82,40.39h-26.55Z"/>
  </g>
  <path class="st0" d="M264.62,114l-1.1,472.07,471.86,1.1,1.1-472.07-471.86-1.1ZM623.52,264.01c-3,.89-12.14,2.67-12.14,2.67l-.42,181.07,52.56.12-.13,55.26-113.66-.26.55-234.09-96.14-.22-.61,133.89c-.02,10.33-1.55,20.51-4.41,30.39-8.45,28.59-28.57,52.65-55.41,65.92-8.55,4.32-17.69,7.3-27.13,9.22-10.19,1.92-20.82,2.5-31.6,1.42l.13-56.01c22.16,2.45,44.2-9.78,53.38-29.98,2.56-4.94,5.23-11.38,5.14-21.11-.07-7.69.02-135.33.02-135.33-22.96,5.08-39.78,23.82-50.38,42.73l-50.14-28.49c5.56-10.32,15.57-26.68,22.32-34.46,15.92-18.23,35.88-30.63,52.32-34.86,5.89-1.52,18.35-3.94,28.68-3.94,44.26,0,195.31-.33,195.31-.33,24.71.06,46.9-12.92,58.93-34.31l49.05,28.57c-15.5,30.67-43.1,53.22-76.22,62.13Z"/>
</svg>